ply
format ascii 1.0
comment Created by Blender 2.64 (sub 0) - www.blender.org, source file: ''
element vertex 482
property float x
property float y
property float z
property float nx
property float ny
property float nz
element face 512
property list uchar uint vertex_indices
end_header
-0.375330 0.074658 0.923880 -0.380413 0.075655 0.921690
-0.544895 0.108386 0.831470 -0.548997 0.109195 0.828639
-0.555570 0.000000 0.831470 -0.559771 0.000000 0.828639
-0.382683 0.000000 0.923880 -0.387860 0.000000 0.921690
-0.544895 0.108386 -0.831470 -0.548997 0.109195 -0.828639
-0.375330 0.074658 -0.923880 -0.380413 0.075655 -0.921690
-0.382683 0.000000 -0.923880 -0.387860 0.000000 -0.921690
-0.555570 0.000000 -0.831470 -0.559771 0.000000 -0.828639
-0.980785 0.195090 0.000000 -0.980773 0.195074 0.000000
-0.961940 0.191342 -0.195090 -0.962157 0.191382 -0.193915
-0.980785 0.000000 -0.195090 -0.980987 0.000000 -0.193915
-1.000000 0.000000 0.000000 -1.000000 0.000000 0.000000
-0.693520 0.137950 0.707107 -0.696493 0.138524 0.704031
-0.707107 0.000000 0.707107 -0.710135 0.000000 0.704031
-0.191341 0.038060 -0.980785 -0.197089 0.039186 -0.979583
-0.195090 0.000000 -0.980785 -0.200964 0.000000 -0.979583
-0.906127 0.180240 -0.382683 -0.906980 0.180395 -0.380535
-0.923880 0.000000 -0.382683 -0.924741 0.000000 -0.380535
-0.815493 0.162212 0.555570 -0.817316 0.162572 0.552751
-0.831470 0.000000 0.555570 -0.833338 0.000000 0.552751
-0.815493 0.162212 -0.555570 -0.817316 0.162572 -0.552751
-0.831470 0.000000 -0.555570 -0.833338 0.000000 -0.552751
-0.906127 0.180240 0.382683 -0.906980 0.180395 0.380535
-0.923880 0.000000 0.382683 -0.924741 0.000000 0.380535
-0.693520 0.137950 -0.707107 -0.696493 0.138524 -0.704031
-0.707107 0.000000 -0.707107 -0.710135 0.000000 -0.704031
-0.961940 0.191342 0.195090 -0.962157 0.191382 0.193915
-0.980785 0.000000 0.195090 -0.980987 0.000000 0.193915
-0.195090 0.000000 0.980785 -0.200964 0.000000 0.979583
-0.191342 0.038060 0.980785 -0.197089 0.039186 0.979583
-0.906127 0.375330 0.195090 -0.906339 0.375408 0.193915
-0.923880 0.382684 0.000000 -0.923856 0.382672 0.000000
-0.353553 0.146447 0.923880 -0.358348 0.148412 0.921690
-0.513280 0.212608 0.831470 -0.517136 0.214209 0.828639
-0.513280 0.212608 -0.831470 -0.517136 0.214209 -0.828639
-0.353553 0.146447 -0.923880 -0.358348 0.148412 -0.921690
-0.906127 0.375330 -0.195090 -0.906339 0.375408 -0.193915
-0.653281 0.270598 0.707107 -0.656056 0.271737 0.704031
-0.180240 0.074658 -0.980785 -0.185644 0.076907 -0.979583
-0.853553 0.353554 -0.382683 -0.854366 0.353893 -0.380535
-0.768178 0.318190 0.555570 -0.769890 0.318888 0.552751
-0.768178 0.318190 -0.555570 -0.769890 0.318888 -0.552751
-0.853553 0.353553 0.382683 -0.854366 0.353862 0.380535
-0.653281 0.270598 -0.707107 -0.656056 0.271737 -0.704031
-0.180240 0.074658 0.980785 -0.185644 0.076907 0.979583
-0.691342 0.461940 -0.555570 -0.692892 0.462966 -0.552751
-0.587938 0.392848 -0.707107 -0.590442 0.394513 -0.704031
-0.768178 0.513280 0.382683 -0.768914 0.513749 0.380535
-0.815493 0.544895 0.195090 -0.815668 0.545000 0.193915
-0.162212 0.108387 0.980785 -0.167089 0.111637 0.979583
-0.318190 0.212608 0.923880 -0.322489 0.215491 0.921690
-0.461940 0.308658 -0.831470 -0.465407 0.310984 -0.828639
-0.831470 0.555570 0.000000 -0.831446 0.555559 0.000000
-0.461940 0.308658 0.831470 -0.465407 0.310984 0.828639
-0.318189 0.212608 -0.923880 -0.322489 0.215491 -0.921690
-0.815493 0.544895 -0.195090 -0.815668 0.545000 -0.193915
-0.587938 0.392848 0.707107 -0.590442 0.394513 0.704031
-0.162211 0.108386 -0.980785 -0.167089 0.111637 -0.979583
-0.768178 0.513280 -0.382683 -0.768914 0.513749 -0.380535
-0.691342 0.461940 0.555570 -0.692892 0.462966 0.552751
-0.653281 0.653282 -0.382683 -0.653890 0.653890 -0.380535
-0.587938 0.587938 -0.555570 -0.589251 0.589251 -0.552751
-0.587938 0.587938 0.555570 -0.589251 0.589251 0.552751
-0.653281 0.653282 0.382683 -0.653890 0.653890 0.380535
-0.500000 0.500000 -0.707107 -0.502121 0.502121 -0.704031
-0.693520 0.693520 0.195090 -0.693655 0.693655 0.193915
-0.137950 0.137950 0.980785 -0.142094 0.142094 0.979583
-0.270598 0.270598 0.923880 -0.274270 0.274270 0.921690
-0.392847 0.392848 -0.831470 -0.395795 0.395795 -0.828639
-0.707107 0.707107 0.000000 -0.707083 0.707083 0.000000
-0.392847 0.392848 0.831470 -0.395795 0.395795 0.828639
-0.270598 0.270598 -0.923880 -0.274270 0.274270 -0.921690
-0.693520 0.693520 -0.195090 -0.693655 0.693655 -0.193915
-0.500000 0.500000 0.707107 -0.502121 0.502121 0.704031
-0.137949 0.137950 -0.980785 -0.142094 0.142094 -0.979583
-0.212607 0.318190 -0.923880 -0.215491 0.322489 -0.921690
-0.108386 0.162212 -0.980785 -0.111637 0.167089 -0.979583
-0.544895 0.815493 -0.195090 -0.545000 0.815668 -0.193915
-0.513280 0.768178 -0.382683 -0.513749 0.768914 -0.380535
-0.392847 0.587938 0.707107 -0.394513 0.590442 0.704031
-0.461940 0.691342 0.555570 -0.462966 0.692892 0.552751
-0.461940 0.691342 -0.555570 -0.462966 0.692892 -0.552751
-0.513280 0.768178 0.382683 -0.513749 0.768914 0.380535
-0.392847 0.587938 -0.707107 -0.394513 0.590442 -0.704031
-0.544895 0.815493 0.195090 -0.545000 0.815668 0.193915
-0.108386 0.162212 0.980785 -0.111637 0.167089 0.979583
-0.212607 0.318190 0.923880 -0.215491 0.322489 0.921690
-0.308658 0.461940 -0.831470 -0.310984 0.465407 -0.828639
-0.555570 0.831470 0.000000 -0.555559 0.831446 0.000000
-0.308658 0.461940 0.831470 -0.310984 0.465407 0.828639
-0.146446 0.353554 0.923880 -0.148412 0.358348 0.921690
-0.212607 0.513280 0.831470 -0.214209 0.517136 0.828639
-0.212607 0.513280 -0.831470 -0.214209 0.517136 -0.828639
-0.146446 0.353553 -0.923880 -0.148412 0.358348 -0.921690
-0.382683 0.923880 0.000000 -0.382672 0.923856 0.000000
-0.375330 0.906128 -0.195090 -0.375408 0.906339 -0.193915
-0.270598 0.653282 0.707107 -0.271737 0.656056 0.704031
-0.074658 0.180240 -0.980785 -0.076907 0.185644 -0.979583
-0.353553 0.853554 -0.382683 -0.353862 0.854366 -0.380535
-0.318189 0.768178 0.555570 -0.318888 0.769890 0.552751
-0.318189 0.768178 -0.555570 -0.318888 0.769890 -0.552751
-0.353553 0.853554 0.382683 -0.353862 0.854366 0.380535
-0.270598 0.653282 -0.707107 -0.271737 0.656056 -0.704031
-0.375330 0.906128 0.195090 -0.375408 0.906339 0.193915
-0.074658 0.180240 0.980785 -0.076907 0.185644 0.979583
-0.180240 0.906128 0.382683 -0.180395 0.906980 0.380535
-0.191341 0.961940 0.195090 -0.191382 0.962157 0.193915
-0.038060 0.191342 0.980785 -0.039186 0.197089 0.979583
-0.074658 0.375331 0.923880 -0.075655 0.380413 0.921690
-0.137949 0.693520 -0.707107 -0.138524 0.696493 -0.704031
-0.108386 0.544895 -0.831470 -0.109195 0.548997 -0.828639
-0.195090 0.980785 0.000000 -0.195074 0.980773 0.000000
-0.108386 0.544895 0.831470 -0.109195 0.548997 0.828639
-0.074658 0.375330 -0.923880 -0.075655 0.380413 -0.921690
-0.191341 0.961940 -0.195090 -0.191382 0.962157 -0.193915
-0.137949 0.693520 0.707107 -0.138524 0.696493 0.704031
-0.038060 0.191342 -0.980785 -0.039186 0.197089 -0.979583
-0.180240 0.906128 -0.382683 -0.180395 0.906980 -0.380535
-0.162211 0.815493 0.555570 -0.162572 0.817316 0.552751
-0.162211 0.815493 -0.555570 -0.162572 0.817316 -0.552751
0.000000 0.923880 -0.382683 0.000000 0.924741 -0.380535
0.000000 0.831470 -0.555570 0.000000 0.833338 -0.552751
0.000000 0.831470 0.555570 0.000000 0.833338 0.552751
0.000000 0.923880 0.382683 0.000000 0.924741 0.380535
0.000000 0.707107 -0.707107 0.000000 0.710135 -0.704031
0.000000 0.980785 0.195090 0.000000 0.980987 0.193915
0.000000 0.195091 0.980785 0.000000 0.200964 0.979583
0.000000 0.382684 0.923880 0.000000 0.387860 0.921690
0.000000 0.555570 -0.831470 0.000000 0.559771 -0.828639
0.000000 1.000000 0.000000 0.000000 0.999969 0.000000
0.000000 0.555570 0.831470 0.000000 0.559771 0.828639
0.000000 0.382684 -0.923880 0.000000 0.387860 -0.921690
0.000000 0.980785 -0.195090 0.000000 0.980987 -0.193915
0.000000 0.707107 0.707107 0.000000 0.710135 0.704031
0.000000 0.195090 -0.980785 0.000000 0.200964 -0.979583
0.074658 0.375330 -0.923880 0.075655 0.380413 -0.921690
0.038061 0.191342 -0.980785 0.039186 0.197089 -0.979583
0.191342 0.961940 -0.195090 0.191382 0.962157 -0.193915
0.180240 0.906128 -0.382683 0.180395 0.906980 -0.380535
0.137950 0.693520 0.707107 0.138524 0.696493 0.704031
0.162212 0.815493 0.555570 0.162572 0.817316 0.552751
0.162212 0.815493 -0.555570 0.162572 0.817316 -0.552751
0.180240 0.906128 0.382683 0.180395 0.906980 0.380535
0.137950 0.693520 -0.707107 0.138524 0.696493 -0.704031
0.191342 0.961940 0.195090 0.191382 0.962157 0.193915
0.038061 0.191342 0.980785 0.039186 0.197089 0.979583
0.074658 0.375330 0.923880 0.075655 0.380413 0.921690
0.108387 0.544895 -0.831470 0.109195 0.548997 -0.828639
0.195091 0.980785 0.000000 0.195074 0.980773 0.000000
0.108387 0.544895 0.831470 0.109195 0.548997 0.828639
0.146447 0.353554 0.923880 0.148412 0.358348 0.921690
0.212608 0.513280 0.831470 0.214209 0.517136 0.828639
0.212608 0.513280 -0.831470 0.214209 0.517136 -0.828639
0.146447 0.353553 -0.923880 0.148412 0.358348 -0.921690
0.382684 0.923880 0.000000 0.382672 0.923856 0.000000
0.375331 0.906127 -0.195090 0.375408 0.906339 -0.193915
0.270598 0.653282 0.707107 0.271737 0.656056 0.704031
0.074658 0.180240 -0.980785 0.076907 0.185644 -0.979583
0.353554 0.853553 -0.382683 0.353893 0.854366 -0.380535
0.318190 0.768178 0.555570 0.318888 0.769890 0.552751
0.318190 0.768178 -0.555570 0.318888 0.769890 -0.552751
0.353554 0.853553 0.382683 0.353893 0.854366 0.380535
0.270598 0.653282 -0.707107 0.271737 0.656056 -0.704031
0.375331 0.906127 0.195090 0.375408 0.906339 0.193915
0.074658 0.180240 0.980785 0.076907 0.185644 0.979583
0.513280 0.768178 0.382683 0.513749 0.768914 0.380535
0.544895 0.815493 0.195090 0.545000 0.815668 0.193915
0.108387 0.162212 0.980785 0.111637 0.167089 0.979583
0.212608 0.318190 0.923880 0.215491 0.322489 0.921690
0.392848 0.587938 -0.707107 0.394513 0.590442 -0.704031
0.308659 0.461940 -0.831470 0.310984 0.465407 -0.828639
0.555571 0.831470 0.000000 0.555559 0.831446 0.000000
0.308659 0.461940 0.831470 0.310984 0.465407 0.828639
0.212608 0.318190 -0.923880 0.215491 0.322489 -0.921690
0.544895 0.815493 -0.195090 0.545000 0.815668 -0.193915
0.392848 0.587938 0.707107 0.394513 0.590442 0.704031
0.108387 0.162212 -0.980785 0.111637 0.167089 -0.979583
0.513280 0.768178 -0.382683 0.513749 0.768914 -0.380535
0.461940 0.691342 0.555570 0.462966 0.692892 0.552751
0.461940 0.691342 -0.555570 0.462966 0.692892 -0.552751
0.653282 0.653281 -0.382683 0.653890 0.653890 -0.380535
0.587938 0.587938 -0.555570 0.589251 0.589251 -0.552751
0.587938 0.587938 0.555570 0.589251 0.589251 0.552751
0.653282 0.653281 0.382683 0.653890 0.653890 0.380535
0.500000 0.500000 -0.707107 0.502121 0.502121 -0.704031
0.693520 0.693520 0.195090 0.693655 0.693655 0.193915
0.137950 0.137950 0.980785 0.142094 0.142094 0.979583
0.270599 0.270598 0.923880 0.274270 0.274270 0.921690
0.392848 0.392847 -0.831470 0.395795 0.395795 -0.828639
0.707107 0.707107 0.000000 0.707083 0.707083 0.000000
0.392848 0.392847 0.831470 0.395795 0.395795 0.828639
0.270598 0.270598 -0.923880 0.274270 0.274270 -0.921690
0.693520 0.693520 -0.195090 0.693655 0.693655 -0.193915
0.500000 0.500000 0.707107 0.502121 0.502121 0.704031
0.137950 0.137950 -0.980785 0.142094 0.142094 -0.979583
0.318190 0.212608 -0.923880 0.322489 0.215491 -0.921690
0.162212 0.108386 -0.980785 0.167089 0.111637 -0.979583
0.815493 0.544895 -0.195090 0.815668 0.545000 -0.193915
0.768178 0.513280 -0.382683 0.768914 0.513749 -0.380535
0.587938 0.392847 0.707107 0.590442 0.394513 0.704031
0.691342 0.461940 0.555570 0.692892 0.462966 0.552751
0.691342 0.461940 -0.555570 0.692892 0.462966 -0.552751
0.768178 0.513280 0.382683 0.768914 0.513749 0.380535
0.587938 0.392847 -0.707107 0.590442 0.394513 -0.704031
0.815493 0.544895 0.195090 0.815668 0.545000 0.193915
0.162212 0.108387 0.980785 0.167089 0.111637 0.979583
0.318190 0.212608 0.923880 0.322489 0.215491 0.921690
0.461940 0.308658 -0.831470 0.465407 0.310984 -0.828639
0.831470 0.555570 0.000000 0.831446 0.555559 0.000000
0.461940 0.308658 0.831470 0.465407 0.310984 0.828639
0.513280 0.212607 -0.831470 0.517136 0.214209 -0.828639
0.353554 0.146447 -0.923880 0.358348 0.148412 -0.921690
0.923880 0.382683 0.000000 0.923856 0.382672 0.000000
0.906128 0.375330 -0.195090 0.906339 0.375408 -0.193915
0.513280 0.212607 0.831470 0.517136 0.214209 0.828639
0.653282 0.270598 0.707107 0.656056 0.271737 0.704031
0.180240 0.074658 -0.980785 0.185644 0.076907 -0.979583
0.853554 0.353553 -0.382683 0.854366 0.353862 -0.380535
0.768178 0.318190 0.555570 0.769890 0.318888 0.552751
0.768178 0.318190 -0.555570 0.769890 0.318888 -0.552751
0.853554 0.353553 0.382683 0.854366 0.353862 0.380535
0.653282 0.270598 -0.707107 0.656056 0.271737 -0.704031
0.906128 0.375330 0.195090 0.906339 0.375408 0.193915
0.180241 0.074658 0.980785 0.185644 0.076907 0.979583
0.353554 0.146447 0.923880 0.358348 0.148412 0.921690
0.191342 0.038060 0.980785 0.197089 0.039186 0.979583
0.375331 0.074658 0.923880 0.380413 0.075655 0.921690
0.693520 0.137950 -0.707107 0.696493 0.138524 -0.704031
0.544895 0.108386 -0.831470 0.548997 0.109195 -0.828639
0.961940 0.191342 0.195090 0.962157 0.191382 0.193915
0.980785 0.195090 0.000000 0.980773 0.195074 0.000000
0.544895 0.108386 0.831470 0.548997 0.109195 0.828639
0.375331 0.074658 -0.923880 0.380413 0.075655 -0.921690
0.961940 0.191342 -0.195090 0.962157 0.191382 -0.193915
0.693520 0.137950 0.707107 0.696493 0.138524 0.704031
0.191342 0.038060 -0.980785 0.197089 0.039186 -0.979583
0.906128 0.180240 -0.382683 0.906980 0.180395 -0.380535
0.815493 0.162212 0.555570 0.817316 0.162572 0.552751
0.815493 0.162212 -0.555570 0.817316 0.162572 -0.552751
0.906128 0.180240 0.382683 0.906980 0.180395 0.380535
0.831470 -0.000000 0.555570 0.833338 0.000000 0.552751
0.923880 -0.000000 0.382683 0.924741 0.000000 0.380535
0.831470 -0.000000 -0.555570 0.833338 0.000000 -0.552751
0.707107 -0.000000 -0.707107 0.710135 0.000000 -0.704031
0.980785 -0.000000 0.195090 0.980987 0.000000 0.193915
0.195091 -0.000000 0.980785 0.200964 0.000000 0.979583
0.382684 -0.000000 0.923880 0.387860 0.000000 0.921690
0.555570 -0.000000 -0.831470 0.559771 0.000000 -0.828639
1.000000 -0.000000 0.000000 1.000000 0.000000 0.000000
0.555570 -0.000000 0.831470 0.559771 0.000000 0.828639
0.382684 -0.000000 -0.923880 0.387860 0.000000 -0.921690
0.980785 -0.000000 -0.195090 0.980987 0.000000 -0.193915
0.707107 -0.000000 0.707107 0.710135 0.000000 0.704031
0.195091 -0.000000 -0.980785 0.200964 0.000000 -0.979583
0.923880 -0.000000 -0.382683 0.924741 0.000000 -0.380535
0.961940 -0.191342 -0.195090 0.962157 -0.191382 -0.193915
0.906128 -0.180240 -0.382683 0.906980 -0.180395 -0.380535
0.693520 -0.137950 0.707107 0.696493 -0.138524 0.704031
0.815493 -0.162212 0.555570 0.817316 -0.162572 0.552751
0.815493 -0.162212 -0.555570 0.817316 -0.162572 -0.552751
0.906128 -0.180240 0.382683 0.906980 -0.180395 0.380535
0.693520 -0.137950 -0.707107 0.696493 -0.138524 -0.704031
0.961940 -0.191342 0.195090 0.962157 -0.191382 0.193915
0.191342 -0.038060 0.980785 0.197089 -0.039186 0.979583
0.375331 -0.074658 0.923880 0.380413 -0.075655 0.921690
0.544895 -0.108386 -0.831470 0.548997 -0.109195 -0.828639
0.980785 -0.195090 0.000000 0.980773 -0.195074 0.000000
0.544895 -0.108386 0.831470 0.548997 -0.109195 0.828639
0.375331 -0.074658 -0.923880 0.380413 -0.075655 -0.921690
0.191342 -0.038060 -0.980785 0.197089 -0.039186 -0.979583
0.513280 -0.212608 -0.831470 0.517136 -0.214209 -0.828639
0.353554 -0.146447 -0.923880 0.358348 -0.148412 -0.921690
0.923880 -0.382684 0.000000 0.923856 -0.382672 0.000000
0.906128 -0.375330 -0.195090 0.906339 -0.375408 -0.193915
0.513280 -0.212608 0.831470 0.517136 -0.214209 0.828639
0.653282 -0.270598 0.707107 0.656056 -0.271737 0.704031
0.180240 -0.074658 -0.980785 0.185644 -0.076907 -0.979583
0.853553 -0.353553 -0.382683 0.854366 -0.353893 -0.380535
0.768178 -0.318190 0.555570 0.769890 -0.318888 0.552751
0.768178 -0.318190 -0.555570 0.769890 -0.318888 -0.552751
0.853554 -0.353553 0.382683 0.854366 -0.353893 0.380535
0.653282 -0.270598 -0.707107 0.656056 -0.271737 -0.704031
0.906127 -0.375330 0.195090 0.906339 -0.375408 0.193915
0.180240 -0.074658 0.980785 0.185644 -0.076907 0.979583
0.353554 -0.146447 0.923880 0.358348 -0.148412 0.921690
0.162212 -0.108387 0.980785 0.167089 -0.111637 0.979583
0.318190 -0.212608 0.923880 0.322489 -0.215491 0.921690
0.587938 -0.392847 -0.707107 0.590442 -0.394513 -0.704031
0.461940 -0.308658 -0.831470 0.465407 -0.310984 -0.828639
0.815493 -0.544895 0.195090 0.815668 -0.545000 0.193915
0.831470 -0.555570 0.000000 0.831446 -0.555559 0.000000
0.461940 -0.308658 0.831470 0.465407 -0.310984 0.828639
0.318190 -0.212608 -0.923880 0.322489 -0.215491 -0.921690
0.815493 -0.544895 -0.195090 0.815668 -0.545000 -0.193915
0.587938 -0.392847 0.707107 0.590442 -0.394513 0.704031
0.162212 -0.108386 -0.980785 0.167089 -0.111637 -0.979583
0.768178 -0.513280 -0.382683 0.768914 -0.513749 -0.380535
0.691342 -0.461940 0.555570 0.692892 -0.462966 0.552751
0.691342 -0.461940 -0.555570 0.692892 -0.462966 -0.552751
0.768178 -0.513280 0.382683 0.768914 -0.513749 0.380535
0.587938 -0.587938 0.555570 0.589251 -0.589251 0.552751
0.653282 -0.653281 0.382683 0.653890 -0.653890 0.380535
0.587938 -0.587938 -0.555570 0.589251 -0.589251 -0.552751
0.500000 -0.500000 -0.707107 0.502121 -0.502121 -0.704031
0.693520 -0.693520 0.195090 0.693655 -0.693655 0.193915
0.137950 -0.137950 0.980785 0.142094 -0.142094 0.979583
0.270598 -0.270598 0.923880 0.274270 -0.274270 0.921690
0.392848 -0.392847 -0.831470 0.395795 -0.395795 -0.828639
0.707107 -0.707107 0.000000 0.707083 -0.707083 0.000000
0.392848 -0.392847 0.831470 0.395795 -0.395795 0.828639
0.270598 -0.270598 -0.923880 0.274270 -0.274270 -0.921690
0.693520 -0.693520 -0.195090 0.693655 -0.693655 -0.193915
0.500000 -0.500000 0.707107 0.502121 -0.502121 0.704031
0.137950 -0.137950 -0.980785 0.142094 -0.142094 -0.979583
0.653282 -0.653281 -0.382683 0.653890 -0.653890 -0.380535
0.544895 -0.815493 -0.195090 0.545000 -0.815668 -0.193915
0.513280 -0.768178 -0.382683 0.513749 -0.768914 -0.380535
0.392848 -0.587938 0.707107 0.394513 -0.590442 0.704031
0.461940 -0.691342 0.555570 0.462966 -0.692892 0.552751
0.461940 -0.691342 -0.555570 0.462966 -0.692892 -0.552751
0.513280 -0.768178 0.382683 0.513749 -0.768914 0.380535
0.392848 -0.587938 -0.707107 0.394513 -0.590442 -0.704031
0.544895 -0.815493 0.195090 0.545000 -0.815668 0.193915
0.108387 -0.162212 0.980785 0.111637 -0.167089 0.979583
0.212608 -0.318190 0.923880 0.215491 -0.322489 0.921690
0.308658 -0.461940 -0.831470 0.310984 -0.465407 -0.828639
0.555570 -0.831470 0.000000 0.555559 -0.831446 0.000000
0.308658 -0.461940 0.831470 0.310984 -0.465407 0.828639
0.212608 -0.318190 -0.923880 0.215491 -0.322489 -0.921690
0.108387 -0.162212 -0.980785 0.111637 -0.167089 -0.979583
0.212608 -0.513280 -0.831470 0.214209 -0.517136 -0.828639
0.146447 -0.353553 -0.923880 0.148412 -0.358348 -0.921690
0.382683 -0.923879 0.000000 0.382672 -0.923856 0.000000
0.375330 -0.906127 -0.195090 0.375408 -0.906339 -0.193915
0.212608 -0.513280 0.831470 0.214209 -0.517136 0.828639
0.270598 -0.653281 0.707107 0.271737 -0.656056 0.704031
0.074658 -0.180240 -0.980785 0.076907 -0.185644 -0.979583
0.353554 -0.853553 -0.382683 0.353862 -0.854366 -0.380535
0.318190 -0.768178 0.555570 0.318888 -0.769890 0.552751
0.318190 -0.768178 -0.555570 0.318888 -0.769890 -0.552751
0.353553 -0.853553 0.382683 0.353862 -0.854366 0.380535
0.270598 -0.653281 -0.707107 0.271737 -0.656056 -0.704031
0.375330 -0.906127 0.195090 0.375408 -0.906339 0.193915
0.074658 -0.180240 0.980785 0.076907 -0.185644 0.979583
0.146447 -0.353554 0.923880 0.148412 -0.358348 0.921690
0.137950 -0.693520 -0.707107 0.138524 -0.696493 -0.704031
0.108387 -0.544895 -0.831470 0.109195 -0.548997 -0.828639
0.191342 -0.961939 0.195090 0.191382 -0.962157 0.193915
0.195090 -0.980785 0.000000 0.195074 -0.980773 0.000000
0.074658 -0.375330 0.923880 0.075655 -0.380413 0.921690
0.108387 -0.544895 0.831470 0.109195 -0.548997 0.828639
0.074658 -0.375330 -0.923880 0.075655 -0.380413 -0.921690
0.191342 -0.961939 -0.195090 0.191382 -0.962157 -0.193915
0.137950 -0.693520 0.707107 0.138524 -0.696493 0.704031
0.038061 -0.191342 -0.980785 0.039186 -0.197089 -0.979583
0.180240 -0.906127 -0.382683 0.180395 -0.906980 -0.380535
0.162212 -0.815493 0.555570 0.162572 -0.817316 0.552751
0.162212 -0.815493 -0.555570 0.162572 -0.817316 -0.552751
0.180240 -0.906127 0.382683 0.180395 -0.906980 0.380535
0.038061 -0.191342 0.980785 0.039186 -0.197089 0.979583
0.000000 -0.831469 -0.555570 0.000000 -0.833338 -0.552751
0.000000 -0.707107 -0.707107 0.000000 -0.710135 -0.704031
0.000000 -0.923879 0.382683 0.000000 -0.924741 0.380535
0.000000 -0.980785 0.195090 0.000000 -0.980987 0.193915
0.000000 -0.195091 0.980785 0.000000 -0.200964 0.979583
0.000000 -0.382683 0.923880 0.000000 -0.387860 0.921690
0.000000 -0.555570 -0.831470 0.000000 -0.559771 -0.828639
0.000000 -1.000000 0.000000 0.000000 -0.999969 0.000000
0.000000 -0.555570 0.831470 0.000000 -0.559771 0.828639
0.000000 -0.382683 -0.923880 0.000000 -0.387860 -0.921690
0.000000 -0.980785 -0.195090 0.000000 -0.980987 -0.193915
0.000000 -0.707107 0.707107 0.000000 -0.710135 0.704031
0.000000 -0.195090 -0.980785 0.000000 -0.200964 -0.979583
0.000000 -0.923879 -0.382683 0.000000 -0.924741 -0.380535
0.000000 -0.831469 0.555570 0.000000 -0.833338 0.552751
-0.137949 -0.693520 0.707107 -0.138524 -0.696493 0.704031
-0.162211 -0.815493 0.555570 -0.162572 -0.817316 0.552751
-0.180240 -0.906127 -0.382683 -0.180395 -0.906980 -0.380535
-0.162211 -0.815493 -0.555570 -0.162572 -0.817316 -0.552751
-0.180240 -0.906127 0.382683 -0.180395 -0.906980 0.380535
-0.137949 -0.693520 -0.707107 -0.138524 -0.696493 -0.704031
-0.191341 -0.961939 0.195090 -0.191382 -0.962157 0.193915
-0.038060 -0.191342 0.980785 -0.039186 -0.197089 0.979583
-0.074658 -0.375330 0.923880 -0.075655 -0.380413 0.921690
-0.108386 -0.544895 -0.831470 -0.109195 -0.548997 -0.828639
-0.195090 -0.980785 0.000000 -0.195074 -0.980773 0.000000
-0.108386 -0.544895 0.831470 -0.109195 -0.548997 0.828639
-0.074658 -0.375330 -0.923880 -0.075655 -0.380413 -0.921690
-0.191342 -0.961939 -0.195090 -0.191382 -0.962157 -0.193915
-0.038060 -0.191342 -0.980785 -0.039186 -0.197089 -0.979583
-0.382683 -0.923879 0.000000 -0.382672 -0.923856 0.000000
-0.375330 -0.906127 -0.195090 -0.375408 -0.906339 -0.193915
-0.212607 -0.513280 0.831470 -0.214209 -0.517136 0.828639
-0.270598 -0.653281 0.707107 -0.271737 -0.656056 0.704031
-0.146446 -0.353553 -0.923880 -0.148412 -0.358348 -0.921690
-0.074658 -0.180240 -0.980785 -0.076907 -0.185644 -0.979583
-0.353553 -0.853553 -0.382683 -0.353862 -0.854366 -0.380535
-0.318189 -0.768177 0.555570 -0.318888 -0.769890 0.552751
-0.318189 -0.768177 -0.555570 -0.318888 -0.769890 -0.552751
-0.353553 -0.853553 0.382683 -0.353893 -0.854366 0.380535
-0.270598 -0.653281 -0.707107 -0.271737 -0.656056 -0.704031
-0.375330 -0.906127 0.195090 -0.375408 -0.906339 0.193915
-0.074658 -0.180240 0.980785 -0.076907 -0.185644 0.979583
-0.146446 -0.353553 0.923880 -0.148412 -0.358348 0.921690
-0.212607 -0.513280 -0.831470 -0.214209 -0.517136 -0.828639
-0.392847 -0.587937 -0.707107 -0.394513 -0.590442 -0.704031
-0.308658 -0.461939 -0.831470 -0.310984 -0.465407 -0.828639
-0.544895 -0.815493 0.195090 -0.545000 -0.815668 0.193915
-0.555570 -0.831469 0.000000 -0.555559 -0.831446 0.000000
-0.212607 -0.318190 0.923880 -0.215491 -0.322489 0.921690
-0.308658 -0.461939 0.831470 -0.310984 -0.465407 0.828639
-0.212607 -0.318189 -0.923880 -0.215491 -0.322489 -0.921690
-0.544895 -0.815493 -0.195090 -0.545000 -0.815668 -0.193915
-0.392847 -0.587937 0.707107 -0.394513 -0.590442 0.704031
-0.108386 -0.162212 -0.980785 -0.111637 -0.167089 -0.979583
-0.513279 -0.768177 -0.382683 -0.513749 -0.768914 -0.380535
-0.461939 -0.691341 0.555570 -0.462966 -0.692892 0.552751
-0.461939 -0.691341 -0.555570 -0.462966 -0.692892 -0.552751
-0.513280 -0.768177 0.382683 -0.513749 -0.768914 0.380535
-0.108386 -0.162212 0.980785 -0.111637 -0.167089 0.979583
-0.587937 -0.587937 -0.555570 -0.589251 -0.589251 -0.552751
-0.500000 -0.500000 -0.707107 -0.502121 -0.502121 -0.704031
-0.653281 -0.653281 0.382683 -0.653890 -0.653890 0.380535
-0.693519 -0.693519 0.195090 -0.693655 -0.693655 0.193915
-0.137950 -0.137950 0.980785 -0.142094 -0.142094 0.979583
-0.270598 -0.270598 0.923880 -0.274270 -0.274270 0.921690
-0.392847 -0.392847 -0.831470 -0.395795 -0.395795 -0.828639
-0.707106 -0.707106 0.000000 -0.707083 -0.707083 0.000000
-0.392847 -0.392847 0.831470 -0.395795 -0.395795 0.828639
-0.270598 -0.270598 -0.923880 -0.274270 -0.274270 -0.921690
-0.693520 -0.693519 -0.195090 -0.693655 -0.693655 -0.193915
-0.500000 -0.500000 0.707107 -0.502121 -0.502121 0.704031
-0.137949 -0.137950 -0.980785 -0.142094 -0.142094 -0.979583
-0.653281 -0.653281 -0.382683 -0.653890 -0.653890 -0.380535
-0.587937 -0.587937 0.555570 -0.589251 -0.589251 0.552751
-0.587937 -0.392847 0.707107 -0.590442 -0.394513 0.704031
-0.691341 -0.461939 0.555570 -0.692892 -0.462966 0.552751
-0.768177 -0.513280 -0.382683 -0.768914 -0.513749 -0.380535
-0.691341 -0.461939 -0.555570 -0.692892 -0.462966 -0.552751
-0.768177 -0.513279 0.382683 -0.768914 -0.513749 0.380535
-0.587937 -0.392847 -0.707107 -0.590442 -0.394513 -0.704031
-0.815492 -0.544895 0.195090 -0.815668 -0.545000 0.193915
-0.162212 -0.108386 0.980785 -0.167089 -0.111637 0.979583
-0.318189 -0.212607 0.923880 -0.322489 -0.215491 0.921690
-0.461939 -0.308658 -0.831470 -0.465407 -0.310984 -0.828639
-0.831469 -0.555570 0.000000 -0.831446 -0.555559 0.000000
-0.461939 -0.308658 0.831470 -0.465407 -0.310984 0.828639
-0.318189 -0.212607 -0.923880 -0.322489 -0.215491 -0.921690
-0.815493 -0.544895 -0.195090 -0.815668 -0.545000 -0.193915
-0.162211 -0.108386 -0.980785 -0.167089 -0.111637 -0.979583
-0.923879 -0.382683 0.000000 -0.923856 -0.382672 0.000000
-0.906127 -0.375330 -0.195090 -0.906339 -0.375408 -0.193915
-0.513279 -0.212607 0.831470 -0.517136 -0.214209 0.828639
-0.653281 -0.270598 0.707107 -0.656056 -0.271737 0.704031
-0.353553 -0.146446 -0.923880 -0.358348 -0.148412 -0.921690
-0.180240 -0.074658 -0.980785 -0.185644 -0.076907 -0.979583
-0.853553 -0.353553 -0.382683 -0.854366 -0.353862 -0.380535
-0.768177 -0.318189 0.555570 -0.769890 -0.318888 0.552751
-0.768177 -0.318189 -0.555570 -0.769890 -0.318888 -0.552751
-0.853553 -0.353553 0.382683 -0.854366 -0.353862 0.380535
-0.653281 -0.270598 -0.707107 -0.656056 -0.271737 -0.704031
-0.906127 -0.375330 0.195090 -0.906339 -0.375408 0.193915
-0.180240 -0.074658 0.980785 -0.185644 -0.076907 0.979583
-0.353553 -0.146446 0.923880 -0.358348 -0.148412 0.921690
-0.513279 -0.212607 -0.831470 -0.517136 -0.214209 -0.828639
-0.693519 -0.137949 -0.707107 -0.696493 -0.138524 -0.704031
-0.544895 -0.108386 -0.831470 -0.548997 -0.109195 -0.828639
-0.961939 -0.191341 0.195090 -0.962157 -0.191382 0.193915
-0.980784 -0.195090 0.000000 -0.980773 -0.195074 0.000000
-0.375330 -0.074658 0.923880 -0.380413 -0.075655 0.921690
-0.544895 -0.108386 0.831470 -0.548997 -0.109195 0.828639
-0.375330 -0.074658 -0.923880 -0.380413 -0.075655 -0.921690
-0.961939 -0.191341 -0.195090 -0.962157 -0.191382 -0.193915
-0.693519 -0.137949 0.707107 -0.696493 -0.138524 0.704031
-0.191341 -0.038060 -0.980785 -0.197089 -0.039186 -0.979583
-0.906127 -0.180240 -0.382683 -0.906980 -0.180395 -0.380535
-0.815493 -0.162211 0.555570 -0.817316 -0.162572 0.552751
-0.815493 -0.162211 -0.555570 -0.817316 -0.162572 -0.552751
-0.906127 -0.180240 0.382683 -0.906980 -0.180395 0.380535
-0.191342 -0.038060 0.980785 -0.197089 -0.039186 0.979583
0.000000 0.000000 -1.000000 0.000000 0.000000 -1.000000
0.000000 -0.000000 1.000000 0.000000 0.000000 1.000000
4 0 1 2 3
4 4 5 6 7
4 8 9 10 11
4 1 12 13 2
4 5 14 15 6
4 9 16 17 10
4 12 18 19 13
4 16 20 21 17
4 18 22 23 19
4 20 24 25 21
4 22 26 27 23
4 3 28 29 0
4 24 4 7 25
4 26 8 11 27
4 30 31 8 26
4 32 33 1 0
4 34 35 5 4
4 31 36 9 8
4 33 37 12 1
4 35 38 14 5
4 36 39 16 9
4 37 40 18 12
4 39 41 20 16
4 40 42 22 18
4 41 43 24 20
4 42 30 26 22
4 44 32 0 29
4 43 34 4 24
4 45 46 43 41
4 47 48 30 42
4 49 50 32 44
4 46 51 34 43
4 48 52 31 30
4 50 53 33 32
4 51 54 35 34
4 52 55 36 31
4 53 56 37 33
4 54 57 38 35
4 55 58 39 36
4 56 59 40 37
4 58 45 41 39
4 59 47 42 40
4 60 61 45 58
4 62 63 47 59
4 61 64 46 45
4 63 65 48 47
4 66 67 50 49
4 64 68 51 46
4 65 69 52 48
4 67 70 53 50
4 68 71 54 51
4 69 72 55 52
4 70 73 56 53
4 71 74 57 54
4 72 60 58 55
4 73 62 59 56
4 75 76 74 71
4 77 78 60 72
4 79 80 62 73
4 78 81 61 60
4 80 82 63 62
4 81 83 64 61
4 82 84 65 63
4 85 86 67 66
4 83 87 68 64
4 84 88 69 65
4 86 89 70 67
4 87 75 71 68
4 88 77 72 69
4 89 79 73 70
4 90 91 89 86
4 92 93 75 87
4 94 95 77 88
4 91 96 79 89
4 93 97 76 75
4 95 98 78 77
4 96 99 80 79
4 98 100 81 78
4 99 101 82 80
4 100 102 83 81
4 101 103 84 82
4 104 90 86 85
4 102 92 87 83
4 103 94 88 84
4 105 106 103 101
4 107 108 90 104
4 109 110 92 102
4 106 111 94 103
4 108 112 91 90
4 110 113 93 92
4 111 114 95 94
4 112 115 96 91
4 113 116 97 93
4 114 117 98 95
4 115 118 99 96
4 117 119 100 98
4 118 105 101 99
4 119 109 102 100
4 120 121 119 117
4 122 123 105 118
4 121 124 109 119
4 123 125 106 105
4 126 127 108 107
4 124 128 110 109
4 125 129 111 106
4 127 130 112 108
4 128 131 113 110
4 129 132 114 111
4 130 133 115 112
4 131 134 116 113
4 132 120 117 114
4 133 122 118 115
4 135 136 134 131
4 137 138 120 132
4 139 140 122 133
4 138 141 121 120
4 140 142 123 122
4 141 143 124 121
4 142 144 125 123
4 145 146 127 126
4 143 147 128 124
4 144 148 129 125
4 146 149 130 127
4 147 135 131 128
4 148 137 132 129
4 149 139 133 130
4 150 151 149 146
4 152 153 135 147
4 154 155 137 148
4 151 156 139 149
4 153 157 136 135
4 155 158 138 137
4 156 159 140 139
4 158 160 141 138
4 159 161 142 140
4 160 162 143 141
4 161 163 144 142
4 164 150 146 145
4 162 152 147 143
4 163 154 148 144
4 165 166 163 161
4 167 168 150 164
4 169 170 152 162
4 166 171 154 163
4 168 172 151 150
4 170 173 153 152
4 171 174 155 154
4 172 175 156 151
4 173 176 157 153
4 174 177 158 155
4 175 178 159 156
4 177 179 160 158
4 178 165 161 159
4 179 169 162 160
4 180 181 179 177
4 182 183 165 178
4 181 184 169 179
4 183 185 166 165
4 186 187 168 167
4 184 188 170 169
4 185 189 171 166
4 187 190 172 168
4 188 191 173 170
4 189 192 174 171
4 190 193 175 172
4 191 194 176 173
4 192 180 177 174
4 193 182 178 175
4 195 196 194 191
4 197 198 180 192
4 199 200 182 193
4 198 201 181 180
4 200 202 183 182
4 201 203 184 181
4 202 204 185 183
4 205 206 187 186
4 203 207 188 184
4 204 208 189 185
4 206 209 190 187
4 207 195 191 188
4 208 197 192 189
4 209 199 193 190
4 210 211 195 207
4 212 213 197 208
4 214 215 199 209
4 211 216 196 195
4 213 217 198 197
4 215 218 200 199
4 217 219 201 198
4 218 220 202 200
4 219 221 203 201
4 220 222 204 202
4 223 224 206 205
4 221 210 207 203
4 222 212 208 204
4 224 214 209 206
4 225 226 224 223
4 227 228 210 221
4 229 230 212 222
4 226 231 214 224
4 228 232 211 210
4 230 233 213 212
4 231 234 215 214
4 232 235 216 211
4 233 236 217 213
4 234 237 218 215
4 236 238 219 217
4 237 239 220 218
4 238 227 221 219
4 239 229 222 220
4 240 241 239 237
4 242 243 227 238
4 241 244 229 239
4 245 246 226 225
4 243 247 228 227
4 244 248 230 229
4 246 249 231 226
4 247 250 232 228
4 248 251 233 230
4 249 252 234 231
4 250 253 235 232
4 251 254 236 233
4 252 240 237 234
4 254 242 238 236
4 255 256 254 251
4 257 258 240 252
4 256 259 242 254
4 258 260 241 240
4 259 261 243 242
4 260 262 244 241
4 263 264 246 245
4 261 265 247 243
4 262 266 248 244
4 264 267 249 246
4 265 268 250 247
4 266 255 251 248
4 267 257 252 249
4 268 269 253 250
4 270 271 268 265
4 272 273 255 266
4 274 275 257 267
4 271 276 269 268
4 273 277 256 255
4 275 278 258 257
4 277 279 259 256
4 278 280 260 258
4 279 281 261 259
4 280 282 262 260
4 283 284 264 263
4 281 270 265 261
4 282 272 266 262
4 284 274 267 264
4 285 286 284 283
4 287 288 270 281
4 289 290 272 282
4 286 291 274 284
4 288 292 271 270
4 290 293 273 272
4 291 294 275 274
4 292 295 276 271
4 293 296 277 273
4 294 297 278 275
4 296 298 279 277
4 297 299 280 278
4 298 287 281 279
4 299 289 282 280
4 300 301 299 297
4 302 303 287 298
4 301 304 289 299
4 305 306 286 285
4 303 307 288 287
4 304 308 290 289
4 306 309 291 286
4 307 310 292 288
4 308 311 293 290
4 309 312 294 291
4 310 313 295 292
4 311 314 296 293
4 312 300 297 294
4 314 302 298 296
4 315 316 314 311
4 317 318 300 312
4 316 319 302 314
4 318 320 301 300
4 319 321 303 302
4 320 322 304 301
4 323 324 306 305
4 321 325 307 303
4 322 326 308 304
4 324 327 309 306
4 325 328 310 307
4 326 315 311 308
4 327 317 312 309
4 328 329 313 310
4 330 331 328 325
4 332 333 315 326
4 334 335 317 327
4 331 336 329 328
4 333 337 316 315
4 335 338 318 317
4 337 339 319 316
4 338 340 320 318
4 339 341 321 319
4 340 342 322 320
4 343 344 324 323
4 341 330 325 321
4 342 332 326 322
4 344 334 327 324
4 345 346 330 341
4 347 348 332 342
4 349 350 334 344
4 346 351 331 330
4 348 352 333 332
4 350 353 335 334
4 351 354 336 331
4 352 355 337 333
4 353 356 338 335
4 355 357 339 337
4 356 358 340 338
4 357 345 341 339
4 358 347 342 340
4 359 349 344 343
4 360 361 345 357
4 362 363 347 358
4 364 365 349 359
4 361 366 346 345
4 363 367 348 347
4 365 368 350 349
4 366 369 351 346
4 367 370 352 348
4 368 371 353 350
4 369 372 354 351
4 370 373 355 352
4 371 374 356 353
4 373 360 357 355
4 374 362 358 356
4 375 376 374 371
4 377 378 360 373
4 376 379 362 374
4 378 380 361 360
4 379 381 363 362
4 382 383 365 364
4 380 384 366 361
4 381 385 367 363
4 383 386 368 365
4 384 387 369 366
4 385 388 370 367
4 386 375 371 368
4 387 389 372 369
4 388 377 373 370
4 390 391 388 385
4 392 393 375 386
4 394 395 389 387
4 391 396 377 388
4 393 397 376 375
4 396 398 378 377
4 397 399 379 376
4 398 400 380 378
4 399 401 381 379
4 402 403 383 382
4 400 404 384 380
4 401 390 385 381
4 403 392 386 383
4 404 394 387 384
4 405 406 404 400
4 407 408 390 401
4 409 410 392 403
4 406 411 394 404
4 408 412 391 390
4 410 413 393 392
4 411 414 395 394
4 412 415 396 391
4 413 416 397 393
4 415 417 398 396
4 416 418 399 397
4 417 405 400 398
4 418 407 401 399
4 419 409 403 402
4 420 421 405 417
4 422 423 407 418
4 424 425 409 419
4 421 426 406 405
4 423 427 408 407
4 425 428 410 409
4 426 429 411 406
4 427 430 412 408
4 428 431 413 410
4 429 432 414 411
4 430 433 415 412
4 431 434 416 413
4 433 420 417 415
4 434 422 418 416
4 435 436 434 431
4 437 438 420 433
4 436 439 422 434
4 438 440 421 420
4 439 441 423 422
4 442 443 425 424
4 440 444 426 421
4 441 445 427 423
4 443 446 428 425
4 444 447 429 426
4 445 448 430 427
4 446 435 431 428
4 447 449 432 429
4 448 437 433 430
4 450 451 448 445
4 452 453 435 446
4 454 455 449 447
4 451 456 437 448
4 453 457 436 435
4 456 458 438 437
4 457 459 439 436
4 458 460 440 438
4 459 461 441 439
4 462 463 443 442
4 460 464 444 440
4 461 450 445 441
4 463 452 446 443
4 464 454 447 444
4 465 466 464 460
4 467 468 450 461
4 469 470 452 463
4 466 471 454 464
4 468 472 451 450
4 470 473 453 452
4 471 474 455 454
4 472 475 456 451
4 473 476 457 453
4 475 477 458 456
4 476 478 459 457
4 477 465 460 458
4 478 467 461 459
4 479 469 463 462
3 14 480 15
3 29 28 481
3 38 480 14
3 481 44 29
3 57 480 38
3 481 49 44
3 74 480 57
3 481 66 49
3 76 480 74
3 481 85 66
3 97 480 76
3 481 104 85
3 116 480 97
3 481 107 104
3 481 126 107
3 134 480 116
3 136 480 134
3 481 145 126
3 157 480 136
3 481 164 145
3 176 480 157
3 481 167 164
3 481 186 167
3 194 480 176
3 196 480 194
3 481 205 186
3 216 480 196
3 481 223 205
3 235 480 216
3 481 225 223
3 481 245 225
3 253 480 235
3 269 480 253
3 481 263 245
3 276 480 269
3 481 283 263
3 295 480 276
3 481 285 283
3 481 305 285
3 313 480 295
3 329 480 313
3 481 323 305
3 336 480 329
3 481 343 323
3 354 480 336
3 481 359 343
3 481 364 359
3 372 480 354
3 389 480 372
3 481 382 364
3 395 480 389
3 481 402 382
3 414 480 395
3 481 419 402
3 481 424 419
3 432 480 414
3 449 480 432
3 481 442 424
3 455 480 449
3 481 462 442
3 474 480 455
3 481 479 462
4 21 25 465 477
4 23 27 467 478
4 28 3 469 479
4 25 7 466 465
4 27 11 468 467
4 3 2 470 469
4 7 6 471 466
4 11 10 472 468
4 2 13 473 470
4 6 15 474 471
4 10 17 475 472
4 13 19 476 473
3 15 480 474
4 17 21 477 475
4 19 23 478 476
3 481 28 479
